<?xml version="1.0" encoding="UTF-8"?>
<svg id="Layer_5" data-name="Layer 5" xmlns="http://www.w3.org/2000/svg" viewBox="0 0 1080 1080">
  <g>
    <g>
      <path d="m434.7,775.1h-79.22v67.14h77.97c29.36-4.36,30.25-31.02,30.25-31.02,1.82-31.01-29-36.12-29-36.12Zm7.71,16.78c0-.69.56-1.26,1.26-1.26s1.26.56,1.26,1.26v9.59s-.01-.02-.02-.02c-.68-.89-1.51-1.66-2.5-2.3v-7.27Zm-63.83,0c0-.69.56-1.26,1.26-1.26s1.26.56,1.26,1.26v7.27c-.99.64-1.82,1.41-2.5,2.3,0,0-.01.02-.02.02v-9.59Zm-.77,16.79c0-5.57,2.77-8.35,6.57-9.6-1.42,3.05-2.14,6.27-2.14,9.6s.72,6.55,2.14,9.6c-3.8-1.25-6.57-3.73-6.57-9.6Zm33.94,24.24c-5.4,0-10.45-1.31-14.73-3.57-1.88,1.64-4.32,2.63-6.81,2.73,1.28-1.67,2.02-3.75,2.09-5.86-5.38-4.41-8.72-10.64-8.72-17.54,0-13.39,12.61-24.24,28.18-24.24s28.18,10.85,28.18,24.24-12.61,24.24-28.18,24.24Zm27.37-14.65c1.42-3.05,2.14-6.27,2.14-9.6s-.72-6.55-2.14-9.6c3.8,1.25,6.57,4.03,6.57,9.6,0,5.87-2.77,8.35-6.57,9.6Z" fill="#4366b0" fill-rule="evenodd"/>
      <path d="m463.66,738.21s.91-22.01-28.91-29.89h-79.22v67.14h77.97s31.74-3.23,30.16-37.25Zm-52.59,32.91c-5.45,0-10.52-1.6-14.78-4.34-6.47,3.1-16.41,2.03-16.41,2.03,5.26-2.18,7.1-7.5,7.75-10.95-2.48-4.11-3.9-8.93-3.9-14.08,0-15.1,12.24-27.34,27.34-27.34s27.34,12.24,27.34,27.34-12.24,27.34-27.34,27.34Z" fill="#4366b0" fill-rule="evenodd"/>
    </g>
    <g>
      <path d="m406.02,803.22c-.78,1.21-1.91,0-4.27,0s-3.49,1.21-4.27,0c-.76-1.17,1.33-4.04,4.27-4.04s5.03,2.88,4.27,4.04Z" fill="#4366b0"/>
      <path d="m426.01,803.22c-.78,1.21-1.91,0-4.27,0s-3.49,1.21-4.27,0c-.76-1.17,1.33-4.04,4.27-4.04s5.03,2.88,4.27,4.04Z" fill="#4366b0"/>
    </g>
  </g>
  <path d="m217.22,260.46c65.55-140.23,262.95-177.22,362.87-53.24-32.05,14.84-55.95,30.25-74.95,46.02-5.76-7.1-12.61-13.29-20.1-18.57-70.56-50.09-178.25-.25-207.22,67.09-7.57-10.61-36.78-30.59-60.59-41.3h0Z" fill="#6d6e6e"/>
  <path d="m874.78,515.11c-8.54,8.79-17.79,16.99-27.78,24.35l-4.04,90.75-62.41-21.65c-128.22-44.58-277.45-12.94-412.86-5.04-58.2,3.39-112.36-15.36-152.74-48.27-40.39-32.92-67.01-79.99-70.13-133.36-2.21-37.89,7.76-73.97,26.79-105.23,9.33-15,20.33-28.81,33.52-41.05,63.94,31.1,81.79,35.17,51.97,84.29-10.16,16.53-15.52,35.97-14.35,56.28,1.69,28.81,15.91,54.11,37.58,71.76l.47.39c35.31,33.21,89.71,27.72,142.61,21.45,145.75-16.99,249.24-18.35,364.82,35.45l2.84-77.49c75.37-52.4,57.21-144.2,2.52-188.36-40.61-32.71-101.72-39.34-159.88,16.32-22.89,21.71-39.5,54.54-57.66,84.72-30.87,50.66-66.39,93.94-145.7,65.22,72.36-102.8,103.25-268.83,273.7-278.75,61.68-3.59,118.89,16.01,161.74,50.69,42.6,34.92,70.54,84.7,73.84,141.22,1.73,29.86-3.51,58.86-14.73,85.44-11.43,26.58-28.61,50.75-50.11,70.89h0Z" fill="#4366b0"/>
  <g>
    <path d="m374.77,293.8c-38.04,0-68.88,26.53-68.88,59.27,0,16.87,8.19,32.08,21.33,42.88-.17,5.15-1.96,10.24-5.1,14.32,6.09-.24,12.05-2.67,16.64-6.67,10.48,5.54,22.82,8.74,36.02,8.74,38.04,0,68.88-26.53,68.88-59.27s-30.84-59.27-68.88-59.27Zm42.81,87.98c-2.54,2.8-6.16,4.37-9.93,4.37h-65.75c-3.78,0-7.39-1.57-9.93-4.37-7.19-7.92-11.47-17.89-11.47-28.72s4.28-20.8,11.47-28.72c2.54-2.8,6.16-4.37,9.93-4.37h65.75c3.82,0,7.46,1.63,10.02,4.47,7.13,7.91,11.38,17.84,11.38,28.62s-4.28,20.8-11.47,28.72Z" fill="#6d6e6e"/>
    <path d="m302.61,353.07c0,8.13,1.76,16.01,5.24,23.46-9.3-3.06-16.07-9.11-16.07-23.46,0-13.61,6.77-20.4,16.07-23.46-3.48,7.45-5.24,15.34-5.24,23.46Z" fill="#6d6e6e"/>
    <path d="m299.83,312.01v17.77c-2.41,1.56-4.45,3.44-6.11,5.62-.01.02-.03.04-.04.06v-23.45c0-1.7,1.38-3.07,3.07-3.07s3.07,1.38,3.07,3.07Z" fill="#6d6e6e"/>
    <path d="m446.93,353.07c0,8.13-1.76,16.01-5.24,23.46,9.3-3.06,16.07-9.11,16.07-23.46,0-13.61-6.77-20.4-16.07-23.46,3.48,7.45,5.24,15.34,5.24,23.46Z" fill="#6d6e6e"/>
    <path d="m449.72,312.01v17.77c2.41,1.56,4.45,3.44,6.11,5.62.01.02.03.04.04.06v-23.45c0-1.7-1.38-3.07-3.07-3.07s-3.07,1.38-3.07,3.07Z" fill="#6d6e6e"/>
    <g>
      <g>
        <path d="m360.14,351.23c-2,3.08-4.89,0-10.92,0s-8.92,3.08-10.92,0c-1.94-2.98,3.41-10.34,10.92-10.34s12.86,7.36,10.92,10.34Z" fill="#6d6e6e"/>
        <path d="m411.25,351.23c-2,3.08-4.89,0-10.92,0s-8.92,3.08-10.92,0c-1.94-2.98,3.41-10.34,10.92-10.34s12.86,7.36,10.92,10.34Z" fill="#6d6e6e"/>
      </g>
      <path d="m374.77,365.24c-4.21,0-6.99-3.34-7.1-3.48-.63-.77-.52-1.9.25-2.53.77-.63,1.9-.52,2.53.25.01.01,1.84,2.16,4.31,2.16s4.3-2.14,4.32-2.17c.63-.77,1.76-.88,2.53-.25.77.63.88,1.77.25,2.54-.12.14-2.89,3.48-7.1,3.48Z" fill="#6d6e6e"/>
    </g>
  </g>
  <circle cx="648.64" cy="388.92" r="10.66" fill="#4366b0"/>
  <circle cx="711.88" cy="388.92" r="10.66" fill="#4366b0"/>
  <circle cx="775.11" cy="388.92" r="10.66" fill="#4366b0"/>
  <path d="m230.45,717.33l-13.95,23.97c-7.65-7.09-17.9-10.64-30.77-10.64s-22.1,4.04-29.27,12.11-10.76,19.25-10.76,33.52c0,28.8,13.95,43.2,41.85,43.2,12.08,0,22.73-3.93,31.94-11.79l11.99,25.25c-9.47,5.81-17.75,9.49-24.83,11.03-7.08,1.54-15.45,2.31-25.1,2.31-21.56,0-38.57-6.17-51.04-18.52-12.47-12.35-18.71-29.5-18.71-51.47s6.82-39.1,20.47-52.43c13.64-13.33,32.24-20,55.8-20,16.25,0,30.38,4.49,42.37,13.46Z" fill="#4366b0"/>
  <path d="m313.42,838.25v-55.59c0-8.2-1.57-14.19-4.72-17.96-3.14-3.77-8.28-5.66-15.4-5.66-3.29,0-6.81.93-10.55,2.78-3.74,1.86-6.66,4.16-8.76,6.92v69.51h-22.45v-96.19h16.17l4.13,8.98c6.11-7.19,15.12-10.78,27.03-10.78s20.46,3.43,27.08,10.28c6.62,6.86,9.92,16.42,9.92,28.69v59.01h-22.45Z" fill="#4366b0" stroke="#4366b0" stroke-miterlimit="10" stroke-width="6"/>
  <g>
    <path d="m599.35,801.2c0,3.82-.94,7.96-2.83,12.41-1.88,4.45-4.85,8.82-8.89,13.11-4.04,4.29-9.2,7.77-15.48,10.45-6.28,2.67-13.6,4.01-21.96,4.01-6.34,0-12.1-.6-17.29-1.8-5.19-1.2-9.9-3.07-14.13-5.61-4.23-2.54-8.12-5.88-11.67-10.04-3.17-3.77-5.87-7.99-8.11-12.66-2.24-4.67-3.92-9.65-5.04-14.95-1.12-5.3-1.68-10.92-1.68-16.88,0-9.67,1.41-18.32,4.22-25.97,2.81-7.65,6.84-14.19,12.08-19.62,5.24-5.43,11.39-9.57,18.43-12.41,7.05-2.84,14.55-4.26,22.53-4.26,9.72,0,18.38,1.94,25.97,5.82,7.59,3.88,13.41,8.67,17.45,14.38,4.04,5.71,6.06,11.1,6.06,16.18,0,2.79-.98,5.24-2.95,7.37-1.97,2.13-4.34,3.2-7.13,3.2-3.11,0-5.45-.74-7-2.21s-3.29-4.01-5.2-7.62c-3.17-5.95-6.9-10.4-11.18-13.35-4.29-2.95-9.57-4.42-15.85-4.42-9.99,0-17.96,3.8-23.88,11.39-5.93,7.59-8.89,18.38-8.89,32.36,0,9.34,1.31,17.11,3.93,23.31,2.62,6.2,6.33,10.83,11.14,13.89,4.81,3.06,10.43,4.59,16.88,4.59,6.99,0,12.9-1.73,17.74-5.2,4.83-3.47,8.48-8.56,10.94-15.28,1.04-3.17,2.32-5.75,3.85-7.74,1.53-1.99,3.99-2.99,7.37-2.99,2.89,0,5.38,1.01,7.46,3.03,2.07,2.02,3.11,4.53,3.11,7.54Z" fill="#6d6e71" stroke="#6d6e71" stroke-miterlimit="10" stroke-width="7"/>
    <path d="m674.07,716.98c12.45,0,23.14,2.53,32.07,7.58,8.93,5.05,15.69,12.24,20.28,21.55,4.59,9.31,6.88,20.25,6.88,32.81,0,9.29-1.26,17.72-3.77,25.31-2.51,7.59-6.28,14.17-11.3,19.74-5.03,5.57-11.2,9.83-18.52,12.78-7.32,2.95-15.7,4.42-25.15,4.42s-17.81-1.52-25.23-4.55c-7.43-3.03-13.63-7.3-18.6-12.82-4.97-5.52-8.73-12.15-11.26-19.91-2.54-7.75-3.81-16.14-3.81-25.15s1.32-17.7,3.97-25.4c2.65-7.7,6.48-14.25,11.51-19.66,5.02-5.41,11.14-9.54,18.35-12.41,7.21-2.87,15.4-4.3,24.58-4.3Zm34.57,61.77c0-8.79-1.42-16.41-4.26-22.86-2.84-6.44-6.9-11.32-12.17-14.62-5.27-3.3-11.32-4.96-18.15-4.96-4.86,0-9.35.92-13.48,2.74-4.12,1.83-7.67,4.49-10.65,7.99-2.98,3.5-5.33,7.96-7.05,13.39-1.72,5.44-2.58,11.54-2.58,18.31s.86,13,2.58,18.51c1.72,5.52,4.15,10.09,7.29,13.72,3.14,3.63,6.74,6.35,10.81,8.15,4.07,1.8,8.53,2.7,13.39,2.7,6.23,0,11.95-1.56,17.16-4.67,5.21-3.11,9.37-7.92,12.45-14.42,3.08-6.5,4.63-14.5,4.63-24Z" fill="#6d6e71" stroke="#6d6e71" stroke-miterlimit="10" stroke-width="7"/>
    <path d="m769.18,719.03h31.71c8.25,0,15.32.77,21.22,2.29,5.9,1.53,11.25,4.4,16.06,8.6,12.51,10.71,18.76,26.98,18.76,48.83,0,7.21-.63,13.79-1.88,19.74-1.26,5.95-3.19,11.32-5.82,16.1-2.62,4.78-5.98,9.05-10.08,12.82-3.22,2.9-6.75,5.22-10.57,6.96-3.82,1.75-7.93,2.98-12.33,3.69-4.4.71-9.35,1.07-14.87,1.07h-31.7c-4.42,0-7.76-.67-10-2.01-2.24-1.34-3.7-3.22-4.38-5.65-.68-2.43-1.02-5.58-1.02-9.46v-88.07c0-5.24,1.17-9.04,3.52-11.39,2.35-2.35,6.14-3.52,11.39-3.52Zm9.42,19.25v81.51h18.43c4.04,0,7.21-.11,9.5-.33,2.29-.22,4.67-.76,7.13-1.64,2.46-.87,4.59-2.1,6.39-3.69,8.14-6.88,12.21-18.73,12.21-35.55,0-11.85-1.79-20.73-5.37-26.62-3.58-5.9-7.99-9.65-13.23-11.26-5.24-1.61-11.58-2.42-19.01-2.42h-16.06Z" fill="#6d6e71" stroke="#6d6e71" stroke-miterlimit="10" stroke-width="7"/>
    <path d="m957.44,737.79h-54.81v29.49h50.46c3.71,0,6.49.83,8.32,2.5,1.83,1.67,2.75,3.86,2.75,6.59s-.9,4.96-2.7,6.68c-1.8,1.72-4.59,2.58-8.36,2.58h-50.46v34.16h56.69c3.82,0,6.7.89,8.64,2.66,1.94,1.78,2.91,4.14,2.91,7.09s-.97,5.15-2.91,6.92c-1.94,1.78-4.82,2.66-8.64,2.66h-66.11c-5.3,0-9.11-1.17-11.43-3.52-2.32-2.35-3.48-6.14-3.48-11.39v-90.28c0-3.5.52-6.35,1.56-8.56,1.04-2.21,2.66-3.82,4.88-4.83,2.21-1.01,5.04-1.52,8.48-1.52h64.23c3.88,0,6.76.86,8.64,2.58,1.88,1.72,2.83,3.97,2.83,6.76s-.94,5.12-2.83,6.84c-1.88,1.72-4.77,2.58-8.64,2.58Z" fill="#6d6e71" stroke="#6d6e71" stroke-miterlimit="10" stroke-width="7"/>
  </g>
</svg>